# xmcd CD database file
#
# Track frame offsets:
#	150
#	19696
#	33546
#	50956
#	79565
#	94202
#	115457
#	130984
#	152424
#
# Disc length: 2368 seconds
#
# Revision: 0
# Processed by: cddbd v1.5.2PL0 Copyright (c) Steve Scherf et al.
# Submitted via: CDex 1.51
#
DISCID=71093e09
DTITLE=Los CUBANOS - Cu-Bop
DYEAR=2009
DGENRE=Jazz
TTITLE0=Lazy Bird
TTITLE1=Cachaza Y Ron
TTITLE2=Del Sasser
TTITLE3=Keily San
TTITLE4=Son Cosas Que Pasan
TTITLE5=La Tarde
TTITLE6=Irresistible
TTITLE7=My Little Suede Shoes
TTITLE8=Luz De Luna
EXTD=YEAR: 2009
EXTT0=
EXTT1=
EXTT2=
EXTT3=
EXTT4=
EXTT5=
EXTT6=
EXTT7=
EXTT8=
PLAYORDER=
